<svg viewBox="0 0 247.472 114.639"><path d="M.002 114.635h34.653c.659-6.56 0 0 2.266-18.965h11.183l2.264 18.967H84.57c-2.985-18.049-7.132-37.396-11.27-56.433-9.983-2.828-19.783-4.121-29.462-4.82 1.498 8.395 1.838 9.696 3.843 19.153l-13.424.08c1.368-7.16 2.134-10.522 3.805-19.278-8.556-.495 0 0-25.57-.779C8.328 73.201 4.166 93.994.002 114.635m215.08-58.062c-12.678 6.649-21.15 14.29-45.318 16.476l.007 41.59 32.252-.014V76.082c4.813-.013 10.176-.155 14.537-.155 17.113 0 30.913-16.312 30.913-37.214zM94.753 63.8c-3.798 17.23-9.872 50.831-9.872 50.831l34.702.003c.659-6.56 1.562-12.562 2.22-19.119 3.822 0 7.45.154 11.271.154.572 6.56 1.607 12.408 2.177 18.97h34.252l-7.978-40.969c-.082.003-.151 0-.233 0-6.818-.42-16.48-1.034-28.994-2.718l.406 1.654-11.256-.04c.59-3.17.39-2.17.59-3.17A368.138 368.143 0 0 1 94.753 63.8"/><path d="M107.424.008c-2.44 16.565-6.217 34.268-10.107 51.9 10.308 2.226 18.968 3.84 27.207 5.129.63-3.211 1.18-5.836 2.564-13.37 1.237 7.328 1.902 11.114 2.488 14.147 8.472 1.195 16.822 2.1 26.427 2.8.94.138 1.863.19 2.8.311-4.433-20.417-9.007-41.564-12.212-60.915zM22.672.043 12.485 52.56l2.488-.156c.026-.003.054.004.08 0 8.067-1.154 15.62-3.98 26.66-5.363.276-1.482.292-1.39.623-3.187.224 1.33.35 1.903.544 3.032 7.438-.844 16.49-1.024 28.215.387L61.8.086zM216.534 0c-4.427 0-9.657.1-14.38.155V.077h-32.417V61.72c15.963.637 31.217-1.472 45.322-5.363-.224.116-.406.271-.623.387 11.258-3.632 24.707-9.483 33.036-18.033v-.855C247.472 16.953 233.647 0 216.534 0m-11.272 23.865c7.3 0 13.216 5.35 13.216 12.049 0 6.696-5.916 12.124-13.216 12.124-.7 0-1.35-.136-2.021-.232v-23.71c.672-.094 1.323-.231 2.02-.231"/></svg>