<svg xmlns="http://www.w3.org/2000/svg" viewBox="0 0 64 64" fill="currentColor" stroke="none">
  <!-- BJP election symbol: lotus (kamal). Stylised monochrome silhouette. -->
  <path d="M32 12 C30 22 26 28 18 32 C26 34 30 40 32 50 C34 40 38 34 46 32 C38 28 34 22 32 12 Z" />
  <path d="M14 32 C12 28 12 24 14 20 C18 24 22 28 22 32 C20 33 16 33 14 32 Z" />
  <path d="M50 32 C52 28 52 24 50 20 C46 24 42 28 42 32 C44 33 48 33 50 32 Z" />
  <path d="M20 40 C18 44 18 48 22 52 C26 48 28 44 28 40 C26 39 22 39 20 40 Z" />
  <path d="M44 40 C46 44 46 48 42 52 C38 48 36 44 36 40 C38 39 42 39 44 40 Z" />
</svg>
