<svg width="64" height="64" viewBox="0 0 64 64" fill="none" xmlns="http://www.w3.org/2000/svg">
<path fill-rule="evenodd" clip-rule="evenodd" fill="white" d="M31.4376 -0.0625C31.7709 -0.0625 32.1042 -0.0625 32.4376 -0.0625C34.5162 2.1622 36.6204 4.37052 38.7501 6.5625C38.8854 7.68069 38.9896 8.80569 39.0626 9.9375C44.7788 12.6394 50.4663 15.3894 56.1251 18.1875C56.1462 19.1485 56.2087 20.1069 56.3126 21.0625C57.7742 21.9638 58.0867 23.1721 57.2501 24.6875C56.0064 25.7185 54.7982 25.6767 53.6251 24.5625C52.9103 23.0871 53.2437 21.9204 54.6251 21.0625C54.6874 20.5224 54.7083 19.9808 54.6876 19.4375C49.4376 19.4375 44.1876 19.4375 38.9376 19.4375C38.9376 20.5209 38.9376 21.6041 38.9376 22.6875C44.7278 25.3054 50.4571 28.0554 56.1251 30.9375C56.1462 31.8985 56.2087 32.8569 56.3126 33.8125C57.4888 34.416 57.9263 35.3744 57.6251 36.6875C56.9077 38.1214 55.8034 38.5171 54.3126 37.875C53.1153 36.8978 52.9278 35.7519 53.7501 34.4375C53.9977 34.1679 54.2893 33.9595 54.6251 33.8125C54.6874 33.2306 54.7083 32.6474 54.6876 32.0625C49.4376 32.0625 44.1876 32.0625 38.9376 32.0625C38.9168 33.2299 38.9376 34.3966 39.0001 35.5625C42.2501 43.0625 45.5001 50.5625 48.7501 58.0625C50.2614 58.1654 51.7823 58.2279 53.3126 58.25C53.3751 58.3125 53.4376 58.375 53.5001 58.4375C53.7012 60.0538 53.7428 61.6788 53.6251 63.3125C53.5793 63.5565 53.4752 63.7648 53.3126 63.9375C49.9376 63.9375 46.5626 63.9375 43.1876 63.9375C43.1522 63.8389 43.0897 63.7555 43.0001 63.6875C42.9167 61.9375 42.9167 60.1875 43.0001 58.4375C43.0626 58.375 43.1251 58.3125 43.1876 58.25C43.6042 58.2084 44.0209 58.1666 44.4376 58.125C40.2761 56.342 36.1093 54.5711 31.9376 52.8125C27.7658 54.5711 23.5991 56.342 19.4376 58.125C19.8542 58.1666 20.2709 58.2084 20.6876 58.25C20.7501 58.3125 20.8126 58.375 20.8751 58.4375C20.9584 60.1875 20.9584 61.9375 20.8751 63.6875C20.7854 63.7555 20.7229 63.8389 20.6876 63.9375C17.3126 63.9375 13.9376 63.9375 10.5626 63.9375C10.4 63.7648 10.2958 63.5565 10.2501 63.3125C10.1323 61.6788 10.1739 60.0538 10.3751 58.4375C10.4376 58.375 10.5001 58.3125 10.5626 58.25C12.0928 58.2279 13.6137 58.1654 15.1251 58.0625C18.3751 50.5625 21.6251 43.0625 24.8751 35.5625C24.9376 34.3966 24.9583 33.2299 24.9376 32.0625C19.6876 32.0625 14.4376 32.0625 9.18755 32.0625C9.16683 32.6474 9.18765 33.2306 9.25005 33.8125C10.575 34.5576 10.95 35.641 10.3751 37.0625C9.36698 38.323 8.17948 38.5105 6.81255 37.625C6.05613 36.609 5.99363 35.5465 6.62505 34.4375C6.92055 34.2046 7.23305 33.9964 7.56255 33.8125C7.66649 32.8569 7.72899 31.8985 7.75005 30.9375C13.4041 28.1286 19.0916 25.3786 24.8126 22.6875C24.9373 21.6074 24.9789 20.524 24.9376 19.4375C19.6876 19.4375 14.4376 19.4375 9.18755 19.4375C9.16684 19.9808 9.18768 20.5224 9.25005 21.0625C10.445 21.7293 10.8617 22.7292 10.5001 24.0625C9.62693 25.5148 8.43943 25.8273 6.93755 25C6.12293 24.0844 5.97709 23.0635 6.50005 21.9375C6.79965 21.575 7.15383 21.2834 7.56255 21.0625C7.66649 20.1069 7.72899 19.1485 7.75005 18.1875C13.4088 15.3894 19.0963 12.6394 24.8126 9.9375C24.8856 8.80569 24.9897 7.68069 25.1251 6.5625C27.2547 4.37052 29.3589 2.1622 31.4376 -0.0625ZM31.8126 1.8125C33.6773 3.57325 35.4898 5.40659 37.2501 7.3125C37.3124 8.06135 37.3333 8.81135 37.3126 9.5625C33.7292 9.5625 30.1459 9.5625 26.5626 9.5625C26.5418 8.81135 26.5627 8.06135 26.6251 7.3125C28.3798 5.4955 30.1089 3.66216 31.8126 1.8125ZM27.3126 11.1875C30.3747 11.0421 33.4579 11.0213 36.5626 11.125C35.0399 12.6685 33.4983 14.1892 31.9376 15.6875C30.3933 14.1849 28.8517 12.6849 27.3126 11.1875ZM38.9376 11.5625C43.3093 13.665 47.6843 15.7691 52.0626 17.875C47.6878 17.9375 43.3128 17.9584 38.9376 17.9375C38.9376 15.8125 38.9376 13.6875 38.9376 11.5625ZM24.5626 11.6875C24.6876 11.6875 24.8126 11.6875 24.9376 11.6875C24.9376 13.7709 24.9376 15.8541 24.9376 17.9375C20.5623 17.9584 16.1873 17.9375 11.8126 17.875C16.0893 15.8406 20.3393 13.7781 24.5626 11.6875ZM26.5626 12.6875C27.9957 14.0581 29.4123 15.4539 30.8126 16.875C29.4167 18.2709 28.0209 19.6666 26.6251 21.0625C26.5626 18.2711 26.5417 15.4795 26.5626 12.6875ZM37.1876 12.6875C37.3329 15.4579 37.3538 18.2495 37.2501 21.0625C35.8542 19.6666 34.4584 18.2709 33.0626 16.875C34.4628 15.4956 35.8378 14.0998 37.1876 12.6875ZM31.8126 18.0625C33.3226 19.3846 34.7809 20.7805 36.1876 22.25C33.3542 22.3334 30.5209 22.3334 27.6876 22.25C29.0878 20.8706 30.4628 19.4748 31.8126 18.0625ZM8.18755 22.4375C8.91954 22.4818 9.19038 22.8568 9.00005 23.5625C8.59395 24.0459 8.17729 24.0459 7.75005 23.5625C7.6226 23.0691 7.76844 22.6941 8.18755 22.4375ZM55.3126 22.4375C56.1471 22.5856 56.3554 23.0231 55.9376 23.75C55.0919 24.0304 54.7378 23.7179 54.8751 22.8125C55.0182 22.6705 55.1641 22.5455 55.3126 22.4375ZM27.6876 23.9375C30.4996 23.7921 33.3329 23.7713 36.1876 23.875C34.7899 25.2935 33.3733 26.6892 31.9376 28.0625C30.5183 26.6849 29.1017 25.3099 27.6876 23.9375ZM24.8126 24.3125C24.9372 26.374 24.9788 28.4573 24.9376 30.5625C20.6457 30.5834 16.3541 30.5625 12.0626 30.5C16.3393 28.4656 20.5893 26.4031 24.8126 24.3125ZM38.9376 24.3125C43.2524 26.4074 47.5858 28.4699 51.9376 30.5C47.6044 30.5625 43.2711 30.5834 38.9376 30.5625C38.9376 28.4791 38.9376 26.3959 38.9376 24.3125ZM26.5626 25.0625C27.9957 26.4331 29.4123 27.8289 30.8126 29.25C29.4167 30.6459 28.0209 32.0416 26.6251 33.4375C26.5626 30.6461 26.5417 27.8545 26.5626 25.0625ZM37.1876 25.0625C37.3329 27.8329 37.3538 30.6245 37.2501 33.4375C35.8542 32.0416 34.4584 30.6459 33.0626 29.25C34.4628 27.8706 35.8378 26.4748 37.1876 25.0625ZM31.8126 30.4375C33.3226 31.7596 34.7809 33.1555 36.1876 34.625C33.3542 34.7084 30.5209 34.7084 27.6876 34.625C29.0878 33.2456 30.4628 31.8498 31.8126 30.4375ZM8.18755 35.1875C8.91954 35.2318 9.19038 35.6068 9.00005 36.3125C8.36593 36.858 7.92843 36.733 7.68755 35.9375C7.70874 35.5843 7.87542 35.3343 8.18755 35.1875ZM55.3126 35.1875C56.1606 35.2645 56.3897 35.6811 56.0001 36.4375C55.1294 36.8131 54.7544 36.5215 54.8751 35.5625C55.0182 35.4205 55.1641 35.2955 55.3126 35.1875ZM28.3126 36.3125C30.7078 36.1673 33.1246 36.1464 35.5626 36.25C34.3542 37.0625 33.1459 37.875 31.9376 38.6875C30.7434 37.8621 29.5352 37.0705 28.3126 36.3125ZM22.5626 44.9375C23.6924 42.1939 24.8592 39.4646 26.0626 36.75C26.1459 36.6666 26.2292 36.6666 26.3126 36.75C27.7292 37.7084 29.1459 38.6666 30.5626 39.625C27.9138 41.4281 25.2472 43.199 22.5626 44.9375ZM41.3126 44.9375C38.6279 43.199 35.9613 41.4281 33.3126 39.625C34.7634 38.7156 36.1801 37.7572 37.5626 36.75C37.6459 36.6666 37.7292 36.6666 37.8126 36.75C39.0159 39.4646 40.1827 42.1939 41.3126 44.9375ZM31.8126 40.5625C35.0751 42.6772 38.3251 44.8231 41.5626 47C38.3824 48.4235 35.1741 49.7776 31.9376 51.0625C28.7147 49.7451 25.5063 48.3909 22.3126 47C25.5356 44.9202 28.7023 42.7744 31.8126 40.5625ZM21.0626 48.1875C23.9871 49.4126 26.9037 50.6626 29.8126 51.9375C25.6923 53.7786 21.5466 55.5703 17.3751 57.3125C17.3126 57.2709 17.2501 57.2291 17.1876 57.1875C18.5287 54.205 19.8203 51.205 21.0626 48.1875ZM46.6876 57.3125C42.4544 55.613 38.2461 53.8421 34.0626 52C36.9356 50.6811 39.8313 49.4102 42.7501 48.1875C44.1241 51.2065 45.4366 54.2481 46.6876 57.3125ZM11.8126 59.6875C14.3542 59.6875 16.8959 59.6875 19.4376 59.6875C19.4376 60.6041 19.4376 61.5209 19.4376 62.4375C16.8959 62.4375 14.3542 62.4375 11.8126 62.4375C11.8126 61.5209 11.8126 60.6041 11.8126 59.6875ZM44.4376 59.6875C46.9792 59.6875 49.5209 59.6875 52.0626 59.6875C52.0626 60.6041 52.0626 61.5209 52.0626 62.4375C49.5209 62.4375 46.9792 62.4375 44.4376 62.4375C44.4376 61.5209 44.4376 60.6041 44.4376 59.6875Z"/>
</svg>
